D:\school\WTK\thesis\model\3dpredictsim\Results\batch_windlass\Pog_s1_tmt_aCst_d00_k1000_WL10_ig24_act_TTC_GRF.mot
nRows=30
nColumns=19

name D:\school\WTK\thesis\model\3dpredictsim\Results\batch_windlass\Pog_s1_tmt_aCst_d00_k1000_WL10_ig24_act_TTC_GRF.mot
datacolumns 19
datarows 30
range 0.0000000000 0.3547599225
endheader
time 	ground_force_vx	ground_force_vy	ground_force_vz	ground_force_px	ground_force_py	ground_force_pz	1_ground_force_vx	1_ground_force_vy	1_ground_force_vz	1_ground_force_px	1_ground_force_py	1_ground_force_pz	ground_torque_x	ground_torque_y	ground_torque_z	1_ground_torque_x	1_ground_torque_y	1_ground_torque_z
        0.0000000000	      -35.4821235141	       23.7550940811	        4.6444712072	        0.1661077995	        0.0000000000	        0.0633108516	      119.6304506332	      443.9254236216	       -0.2736246262	       -0.3708799060	        0.0000000000	       -0.0370770295	        0.0000000000	        0.0000000000	        0.0000000000	        0.0000000000	        0.0000000000	        0.0000000000	
        0.0122331008	      -75.9437911359	       59.4911173093	       11.8619949512	        0.1815777105	        0.0000000000	        0.0617406488	       84.2739561206	      340.6247597959	       -3.3893848741	       -0.3625761681	        0.0000000000	       -0.0340595371	        0.0000000000	        0.0000000000	        0.0000000000	        0.0000000000	        0.0000000000	        0.0000000000	
        0.0244662016	     -157.3886571502	      158.1861427504	       30.4036261001	        0.1953103798	        0.0000000000	        0.0614936699	       47.9020395332	      230.9579462466	      -12.3494649719	       -0.3493556808	        0.0000000000	       -0.0290955165	        0.0000000000	        0.0000000000	        0.0000000000	        0.0000000000	        0.0000000000	        0.0000000000	
        0.0366993023	      -99.5045280468	      442.2864803208	       -5.1390489349	        0.2123033578	        0.0000000000	        0.0627120462	       30.9444555252	      181.5012375417	      -18.1559076967	       -0.3471802493	        0.0000000000	       -0.0283463506	        0.0000000000	        0.0000000000	        0.0000000000	        0.0000000000	        0.0000000000	        0.0000000000	
        0.0489324031	     -132.0331933346	      762.6805121962	      -26.1507082468	        0.2233183410	        0.0000000000	        0.0633492931	       18.5738260179	      122.9394539372	      -17.3108006616	       -0.3472433153	        0.0000000000	       -0.0285335123	        0.0000000000	        0.0000000000	        0.0000000000	        0.0000000000	        0.0000000000	        0.0000000000	
        0.0611655039	     -183.0796655076	      984.3041224363	      -31.3552710320	        0.2368920559	        0.0000000000	        0.0619001970	       -1.9550271480	       49.3369013426	      -10.6398347345	       -0.3485384408	        0.0000000000	       -0.0288148173	        0.0000000000	        0.0000000000	        0.0000000000	        0.0000000000	        0.0000000000	        0.0000000000	
        0.0733986047	     -189.5658680000	     1004.4467952827	      -27.2877759905	        0.2475703549	        0.0000000000	        0.0601222384	        0.8135289602	       -0.8041377495	       -0.0232173436	        0.0000000000	        0.0000000000	        0.0000000000	        0.0000000000	        0.0000000000	        0.0000000000	        0.0000000000	        0.0000000000	        0.0000000000	
        0.0856317054	     -160.2079005803	      893.7159925793	      -22.7724901408	        0.2520067335	        0.0000000000	        0.0591205339	       -1.0298140780	        0.8873265387	        0.0806509339	        0.0000000000	        0.0000000000	        0.0000000000	        0.0000000000	        0.0000000000	        0.0000000000	        0.0000000000	        0.0000000000	        0.0000000000	
        0.0978648062	     -134.0251961830	      795.3735246363	      -18.2647445617	        0.2549756865	        0.0000000000	        0.0586237907	       -1.3539402191	        1.0135625824	        0.1269188121	        0.0000000000	        0.0000000000	        0.0000000000	        0.0000000000	        0.0000000000	        0.0000000000	        0.0000000000	        0.0000000000	        0.0000000000	
        0.1100979070	     -115.1349366304	      741.2200247904	      -16.8867834027	        0.2581645916	        0.0000000000	        0.0582976321	        0.1254918400	       -0.0884506548	       -0.0093774082	        0.0000000000	        0.0000000000	        0.0000000000	        0.0000000000	        0.0000000000	        0.0000000000	        0.0000000000	        0.0000000000	        0.0000000000	
        0.1223310078	     -100.4919827719	      708.6293517312	      -16.0144617520	        0.2611058491	        0.0000000000	        0.0580768555	        0.0484838364	       -0.0323702668	       -0.0027681262	        0.0000000000	        0.0000000000	        0.0000000000	        0.0000000000	        0.0000000000	        0.0000000000	        0.0000000000	        0.0000000000	        0.0000000000	
        0.1345641086	      -86.4378047586	      685.3817735640	      -16.8035853985	        0.2638035075	        0.0000000000	        0.0579330351	       -0.0028967318	        0.0018627965	        0.0001134478	        0.0000000000	        0.0000000000	        0.0000000000	        0.0000000000	        0.0000000000	        0.0000000000	        0.0000000000	        0.0000000000	        0.0000000000	
        0.1467972093	      -73.1574121661	      665.4097792125	      -17.4858762088	        0.2665187908	        0.0000000000	        0.0578463556	       -0.0169513233	        0.0106621150	        0.0002651839	        0.0000000000	        0.0000000000	        0.0000000000	        0.0000000000	        0.0000000000	        0.0000000000	        0.0000000000	        0.0000000000	        0.0000000000	
        0.1590303101	      -60.8791673530	      648.5505800835	      -18.9769105798	        0.2702026097	        0.0000000000	        0.0576764791	       -0.0129224217	        0.0076939645	        0.0002502137	        0.0000000000	        0.0000000000	        0.0000000000	        0.0000000000	        0.0000000000	        0.0000000000	        0.0000000000	        0.0000000000	        0.0000000000	
        0.1712634109	      -51.3990684157	      635.7364192715	      -20.3837588193	        0.2751248884	        0.0000000000	        0.0573449990	       -0.0060783615	        0.0033572815	        0.0002054796	        0.0000000000	        0.0000000000	        0.0000000000	        0.0000000000	        0.0000000000	        0.0000000000	        0.0000000000	        0.0000000000	        0.0000000000	
        0.1834965117	      -44.0128338271	      625.4844608447	      -21.5005695184	        0.2809379990	        0.0000000000	        0.0568564164	       -0.0033947363	        0.0017369392	        0.0001712028	        0.0000000000	        0.0000000000	        0.0000000000	        0.0000000000	        0.0000000000	        0.0000000000	        0.0000000000	        0.0000000000	        0.0000000000	
        0.1957296124	      -38.2160482809	      615.4396514782	      -21.7690556642	        0.2871278991	        0.0000000000	        0.0562721607	       -0.0024673038	        0.0011846489	        0.0001519795	        0.0000000000	        0.0000000000	        0.0000000000	        0.0000000000	        0.0000000000	        0.0000000000	        0.0000000000	        0.0000000000	        0.0000000000	
        0.2079627132	      -33.5602077858	      606.0076013048	      -21.2788071771	        0.2932600036	        0.0000000000	        0.0556572532	       -0.0024433125	        0.0011185222	        0.0001617951	        0.0000000000	        0.0000000000	        0.0000000000	        0.0000000000	        0.0000000000	        0.0000000000	        0.0000000000	        0.0000000000	        0.0000000000	
        0.2201958140	      -29.4228110491	      597.8410889022	      -20.5264307020	        0.2992578684	        0.0000000000	        0.0550231633	       -0.0032116202	        0.0014193988	        0.0002102707	        0.0000000000	        0.0000000000	        0.0000000000	        0.0000000000	        0.0000000000	        0.0000000000	        0.0000000000	        0.0000000000	        0.0000000000	
        0.2324289148	      -25.4894330294	      590.2543621738	      -19.8174136556	        0.3050961478	        0.0000000000	        0.0543706099	       -0.0053335338	        0.0022933748	        0.0003290202	        0.0000000000	        0.0000000000	        0.0000000000	        0.0000000000	        0.0000000000	        0.0000000000	        0.0000000000	        0.0000000000	        0.0000000000	
        0.2446620155	      -22.7454167121	      584.1949581274	      -19.3833002726	        0.3106822366	        0.0000000000	        0.0537143367	       -0.0106913544	        0.0044906046	        0.0006064409	        0.0000000000	        0.0000000000	        0.0000000000	        0.0000000000	        0.0000000000	        0.0000000000	        0.0000000000	        0.0000000000	        0.0000000000	
        0.2568951163	      -20.1632511183	      579.5730515440	      -19.3110666772	        0.3159222091	        0.0000000000	        0.0530796780	       -0.0244596536	        0.0100548055	        0.0012700321	        0.0000000000	        0.0000000000	        0.0000000000	        0.0000000000	        0.0000000000	        0.0000000000	        0.0000000000	        0.0000000000	        0.0000000000	
        0.2691282171	      -17.3736098509	      575.5179873634	      -19.5222726145	        0.3208874156	        0.0000000000	        0.0524585038	       -0.0591045382	        0.0238215036	        0.0028202289	        0.0000000000	        0.0000000000	        0.0000000000	        0.0000000000	        0.0000000000	        0.0000000000	        0.0000000000	        0.0000000000	        0.0000000000	
        0.2813613179	      -14.4746656154	      571.5624621237	      -19.8309332083	        0.3255923107	        0.0000000000	        0.0518501336	       -0.1394779648	        0.0552158095	        0.0061574654	        0.0000000000	        0.0000000000	        0.0000000000	        0.0000000000	        0.0000000000	        0.0000000000	        0.0000000000	        0.0000000000	        0.0000000000	
        0.2935944187	      -11.5920187945	      567.5444702172	      -20.1454065506	        0.3300272452	        0.0000000000	        0.0512585189	       -0.2985343006	        0.1163865127	        0.0122262434	        0.0000000000	        0.0000000000	        0.0000000000	        0.0000000000	        0.0000000000	        0.0000000000	        0.0000000000	        0.0000000000	        0.0000000000	
        0.3058275194	       -8.8467765578	      563.4442954251	      -20.3203096033	        0.3341489624	        0.0000000000	        0.0506959265	       -0.5535684132	        0.2132208915	        0.0209038553	        0.0000000000	        0.0000000000	        0.0000000000	        0.0000000000	        0.0000000000	        0.0000000000	        0.0000000000	        0.0000000000	        0.0000000000	
        0.3180606202	       -6.3760993474	      558.9185867574	      -20.2002173748	        0.3378895978	        0.0000000000	        0.0501787324	       -0.8718435832	        0.3330000836	        0.0298635053	        0.0000000000	        0.0000000000	        0.0000000000	        0.0000000000	        0.0000000000	        0.0000000000	        0.0000000000	        0.0000000000	        0.0000000000	
        0.3302937210	       -4.1363669373	      552.9718088853	      -19.9765545145	        0.3411487124	        0.0000000000	        0.0497247929	       -1.1798971149	        0.4484090992	        0.0356581572	        0.0000000000	        0.0000000000	        0.0000000000	        0.0000000000	        0.0000000000	        0.0000000000	        0.0000000000	        0.0000000000	        0.0000000000	
        0.3425268218	       -1.3794751094	      547.1385453240	      -19.4174396646	        0.3438809782	        0.0000000000	        0.0493511366	       -1.4152743462	        0.5365237911	        0.0363736380	        0.0000000000	        0.0000000000	        0.0000000000	        0.0000000000	        0.0000000000	        0.0000000000	        0.0000000000	        0.0000000000	        0.0000000000	
        0.3547599225	        2.0719072104	      545.1566035648	      -18.8130304757	        0.3462197634	        0.0000000000	        0.0490070821	       -1.5604802485	        0.5909704744	        0.0323194504	        0.0000000000	        0.0000000000	        0.0000000000	        0.0000000000	        0.0000000000	        0.0000000000	        0.0000000000	        0.0000000000	        0.0000000000	
